<svg width="546" height="224" viewBox="0 0 546 224" fill="none" xmlns="http://www.w3.org/2000/svg">
    <mask id="mask0_164_3" style="mask-type:alpha" maskUnits="userSpaceOnUse" x="0" y="32" width="159" height="160">
    <rect y="32.5" width="159" height="159" rx="44.8462" fill="#D9D9D9"/>
    </mask>
    <g mask="url(#mask0_164_3)">
    <path d="M159.042 32.5H0V191.542H159.042V32.5Z" fill="#E72264"/>
    <path d="M83.3251 56.5C60.5013 56.5 42 74.9828 42 97.784C42 98.2309 42.0077 98.6739 42.0231 99.1169V138.791C42.0231 138.791 42.0231 138.795 42.0231 138.798V142.832C42.0231 142.832 42.0231 142.832 42.027 142.828V152.801C42.027 152.878 42.0231 152.951 42.0231 153.028C42.0231 153.105 42.027 153.182 42.0308 153.26V153.444H42.0347C42.2545 161.106 48.536 167.251 56.2596 167.251C63.9833 167.251 70.3303 161.106 70.5501 153.444V138.798H82.3573C82.6773 138.806 83.0012 138.81 83.3213 138.81C106.145 138.81 124.646 120.585 124.646 97.784C124.646 74.9828 106.149 56.5 83.3251 56.5ZM83.3251 110.304C80.7994 110.304 74.3984 110.304 71.7416 110.304H70.5617V97.7879C70.5617 90.773 76.3033 85.0833 83.3251 85.0833C90.347 85.0833 96.0424 90.773 96.0424 97.7879C96.0424 104.803 90.347 110.308 83.3251 110.308V110.304Z" fill="white"/>
    <path opacity="0.15" d="M55.901 138.806H70.5308V153.448H70.4653C70.2455 161.11 63.964 167.255 56.2403 167.255C48.5167 167.255 42.2314 161.11 42.0116 153.448H42.0077V153.263C42.0077 153.186 42 153.109 42 153.032C42 152.955 42.0039 152.882 42.0039 152.805V151.773C42.4434 144.92 48.9177 138.806 55.8972 138.806H55.901Z" fill="#1D1D1B" fill-opacity="0.5"/>
    <g opacity="0.05">
    <path opacity="0.5" d="M42.0229 121.194V138.799C42.0229 123.29 55.0679 110.524 70.5538 110.312V104.695C59.0435 105.905 48.852 112.095 42.0229 121.194Z" fill="black" fill-opacity="0.5"/>
    <path d="M42.0464 152.047C45.4089 149.581 49.4885 148.129 53.8921 148.129H70.5579V138.799H56.279C48.7366 138.799 42.5708 144.643 42.0464 152.047Z" fill="black" fill-opacity="0.5"/>
    </g>
    <g opacity="0.05">
    <path opacity="0.5" d="M70.5538 110.312V105.211C58.9471 106.348 48.7055 112.673 42.0229 121.961V138.799C42.0229 123.29 55.0679 110.524 70.5538 110.312Z" fill="black" fill-opacity="0.5"/>
    <path d="M56.2787 138.799C48.9407 138.799 42.9022 144.334 42.1001 151.453C45.4587 148.834 49.6078 147.285 54.1078 147.285H70.5538V138.803H56.2749L56.2787 138.799Z" fill="black" fill-opacity="0.5"/>
    </g>
    <g opacity="0.05">
    <path opacity="0.5" d="M70.5538 110.312V105.724C58.843 106.783 48.5358 113.263 42.0229 122.759V138.795C42.0229 123.286 55.0679 110.52 70.5538 110.308V110.312Z" fill="black" fill-opacity="0.5"/>
    <path d="M56.2788 138.799C49.1451 138.799 43.2415 144.026 42.1772 150.856C45.5166 148.086 49.7351 146.434 54.3238 146.434H70.5538V138.799H56.2749H56.2788Z" fill="black" fill-opacity="0.5"/>
    </g>
    <g opacity="0.05">
    <path opacity="0.5" d="M70.5538 110.312V106.24C58.7234 107.218 48.3468 113.875 42.0229 123.602V138.799C42.0229 123.29 55.0679 110.523 70.5538 110.312Z" fill="black" fill-opacity="0.5"/>
    <path d="M56.2787 138.799C49.3494 138.799 43.5769 143.733 42.2812 150.275C45.5936 147.351 49.8699 145.586 54.5434 145.586H70.5576V138.799H56.2787Z" fill="black" fill-opacity="0.5"/>
    </g>
    <g opacity="0.05">
    <path opacity="0.5" d="M70.5538 110.311V106.76C58.5846 107.646 48.1271 114.51 42.0229 124.491V138.799C42.0229 123.29 55.0679 110.523 70.5538 110.311Z" fill="black" fill-opacity="0.5"/>
    <path d="M56.2789 138.799C49.5578 138.799 43.928 143.441 42.4126 149.685C45.6787 146.611 50.009 144.735 54.7596 144.735H70.554V138.795H56.2751L56.2789 138.799Z" fill="black" fill-opacity="0.5"/>
    </g>
    <g opacity="0.05">
    <path opacity="0.5" d="M70.5538 110.311V107.28C58.4265 108.073 47.8687 115.173 42.0229 125.447V138.798C42.0229 123.29 55.0679 110.523 70.5538 110.311Z" fill="black" fill-opacity="0.5"/>
    <path d="M56.279 138.799C49.77 138.799 44.2867 143.152 42.5708 149.096C45.779 145.871 50.1518 143.888 54.9795 143.888H70.5579V138.799H56.279Z" fill="black" fill-opacity="0.5"/>
    </g>
    <g opacity="0.05">
    <path opacity="0.5" d="M70.5538 110.311V107.804C58.2414 108.493 47.5641 115.878 42.0229 126.483V138.798C42.0229 123.29 55.0679 110.523 70.5538 110.311Z" fill="black" fill-opacity="0.5"/>
    <path d="M56.2789 138.799C49.9897 138.799 44.653 142.867 42.752 148.51C45.8869 145.14 50.3021 143.04 55.1915 143.04H70.554V138.799H56.2751H56.2789Z" fill="black" fill-opacity="0.5"/>
    </g>
    <g opacity="0.05">
    <path opacity="0.5" d="M70.5538 110.312V108.332C58.0139 108.909 47.1939 116.641 42.0229 127.635V138.799C42.0229 123.29 55.0679 110.523 70.5538 110.312Z" fill="black" fill-opacity="0.5"/>
    <path d="M56.2787 138.799C50.2055 138.799 45.0229 142.593 42.96 147.936C46.0101 144.415 50.4522 142.193 55.4111 142.193H70.5576V138.799H56.2787Z" fill="black" fill-opacity="0.5"/>
    </g>
    <g opacity="0.05">
    <path opacity="0.5" d="M70.5538 110.312V108.871C57.7247 109.33 46.7196 117.496 42.0229 128.972V138.799C42.0229 123.29 55.0679 110.524 70.5538 110.312Z" fill="black" fill-opacity="0.5"/>
    <path d="M56.2789 138.799C50.4254 138.799 45.3972 142.324 43.1992 147.362C46.1414 143.691 50.6144 141.345 55.6311 141.345H70.5578V138.799H56.2789Z" fill="black" fill-opacity="0.5"/>
    </g>
    </g>
    <mask id="path-23-outside-1_164_3" maskUnits="userSpaceOnUse" x="181" y="62" width="366" height="109" fill="black">
    <rect fill="white" x="181" y="62" width="366" height="109"/>
    <path d="M192.9 120.88V112.2H220.9C227.247 112.2 232.1 110.613 235.46 107.44C238.82 104.173 240.5 99.8333 240.5 94.42C240.5 89.1933 238.82 84.9467 235.46 81.68C232.1 78.32 227.247 76.64 220.9 76.64H192.9V67.68H220.9C227.153 67.68 232.52 68.8467 237 71.18C241.48 73.42 244.887 76.5467 247.22 80.56C249.647 84.5733 250.86 89.1467 250.86 94.28C250.86 99.6 249.647 104.267 247.22 108.28C244.887 112.293 241.48 115.42 237 117.66C232.52 119.807 227.153 120.88 220.9 120.88H192.9ZM186.32 164V67.68H196.54V164H186.32ZM244.56 164L208.44 119.48L218.38 116.26L257.72 164H244.56ZM301.475 165.4C294.849 165.4 288.922 163.907 283.695 160.92C278.469 157.933 274.315 153.827 271.235 148.6C268.249 143.373 266.755 137.493 266.755 130.96C266.755 124.52 268.249 118.733 271.235 113.6C274.222 108.373 278.282 104.267 283.415 101.28C288.549 98.2933 294.289 96.8 300.635 96.8C306.609 96.8 311.882 98.1533 316.455 100.86C321.122 103.567 324.762 107.347 327.375 112.2C330.082 116.96 331.435 122.467 331.435 128.72C331.435 129.467 331.389 130.353 331.295 131.38C331.202 132.313 331.015 133.433 330.735 134.74H273.755V126.34H325.415L321.915 129.42C322.009 124.567 321.169 120.413 319.395 116.96C317.715 113.413 315.242 110.707 311.975 108.84C308.802 106.88 304.929 105.9 300.355 105.9C295.595 105.9 291.442 106.927 287.895 108.98C284.349 111.033 281.549 113.927 279.495 117.66C277.535 121.3 276.555 125.64 276.555 130.68C276.555 135.72 277.582 140.153 279.635 143.98C281.782 147.807 284.722 150.793 288.455 152.94C292.282 155.087 296.669 156.16 301.615 156.16C305.629 156.16 309.315 155.46 312.675 154.06C316.035 152.567 318.882 150.373 321.215 147.48L327.515 153.92C324.435 157.56 320.609 160.407 316.035 162.46C311.555 164.42 306.702 165.4 301.475 165.4ZM377.788 165.4C371.534 165.4 365.934 163.907 360.988 160.92C356.041 157.84 352.121 153.733 349.228 148.6C346.428 143.467 345.028 137.68 345.028 131.24C345.028 124.707 346.428 118.873 349.228 113.74C352.121 108.513 356.041 104.407 360.988 101.42C365.934 98.34 371.488 96.8 377.648 96.8C382.688 96.8 387.168 97.8267 391.088 99.88C395.101 101.84 398.321 104.64 400.748 108.28C403.268 111.827 404.808 115.98 405.368 120.74V141.32C404.808 146.08 403.268 150.28 400.748 153.92C398.321 157.56 395.101 160.407 391.088 162.46C387.168 164.42 382.734 165.4 377.788 165.4ZM379.328 156.02C386.141 156.02 391.601 153.733 395.708 149.16C399.908 144.587 402.008 138.567 402.008 131.1C402.008 126.153 401.028 121.813 399.068 118.08C397.201 114.253 394.541 111.313 391.088 109.26C387.728 107.113 383.761 106.04 379.188 106.04C374.521 106.04 370.368 107.113 366.728 109.26C363.181 111.407 360.334 114.393 358.188 118.22C356.134 121.953 355.108 126.247 355.108 131.1C355.108 135.953 356.134 140.247 358.188 143.98C360.334 147.713 363.228 150.653 366.868 152.8C370.508 154.947 374.661 156.02 379.328 156.02ZM401.448 164V146.36L403.408 130.12L401.448 114.3V98.2H411.248V164H401.448ZM463.882 165.4C457.442 165.4 451.609 163.907 446.382 160.92C441.249 157.84 437.142 153.687 434.062 148.46C431.075 143.233 429.582 137.4 429.582 130.96C429.582 124.52 431.075 118.733 434.062 113.6C437.142 108.373 441.249 104.267 446.382 101.28C451.609 98.2933 457.442 96.8 463.882 96.8C468.829 96.8 473.449 97.7333 477.742 99.6C482.035 101.467 485.675 104.08 488.662 107.44L482.222 114.02C479.982 111.5 477.275 109.587 474.102 108.28C470.929 106.88 467.522 106.18 463.882 106.18C459.215 106.18 455.062 107.253 451.422 109.4C447.782 111.547 444.935 114.487 442.882 118.22C440.829 121.86 439.802 126.107 439.802 130.96C439.802 135.72 440.829 140.013 442.882 143.84C444.935 147.573 447.782 150.513 451.422 152.66C455.062 154.807 459.215 155.88 463.882 155.88C467.615 155.88 471.069 155.227 474.242 153.92C477.415 152.52 480.122 150.56 482.362 148.04L488.942 154.62C485.862 158.073 482.129 160.733 477.742 162.6C473.449 164.467 468.829 165.4 463.882 165.4ZM515.165 164V70.48H524.965V164H515.165ZM498.505 107.02V98.2H541.485V107.02H498.505Z"/>
    </mask>
    <path d="M192.9 120.88V112.2H220.9C227.247 112.2 232.1 110.613 235.46 107.44C238.82 104.173 240.5 99.8333 240.5 94.42C240.5 89.1933 238.82 84.9467 235.46 81.68C232.1 78.32 227.247 76.64 220.9 76.64H192.9V67.68H220.9C227.153 67.68 232.52 68.8467 237 71.18C241.48 73.42 244.887 76.5467 247.22 80.56C249.647 84.5733 250.86 89.1467 250.86 94.28C250.86 99.6 249.647 104.267 247.22 108.28C244.887 112.293 241.48 115.42 237 117.66C232.52 119.807 227.153 120.88 220.9 120.88H192.9ZM186.32 164V67.68H196.54V164H186.32ZM244.56 164L208.44 119.48L218.38 116.26L257.72 164H244.56ZM301.475 165.4C294.849 165.4 288.922 163.907 283.695 160.92C278.469 157.933 274.315 153.827 271.235 148.6C268.249 143.373 266.755 137.493 266.755 130.96C266.755 124.52 268.249 118.733 271.235 113.6C274.222 108.373 278.282 104.267 283.415 101.28C288.549 98.2933 294.289 96.8 300.635 96.8C306.609 96.8 311.882 98.1533 316.455 100.86C321.122 103.567 324.762 107.347 327.375 112.2C330.082 116.96 331.435 122.467 331.435 128.72C331.435 129.467 331.389 130.353 331.295 131.38C331.202 132.313 331.015 133.433 330.735 134.74H273.755V126.34H325.415L321.915 129.42C322.009 124.567 321.169 120.413 319.395 116.96C317.715 113.413 315.242 110.707 311.975 108.84C308.802 106.88 304.929 105.9 300.355 105.9C295.595 105.9 291.442 106.927 287.895 108.98C284.349 111.033 281.549 113.927 279.495 117.66C277.535 121.3 276.555 125.64 276.555 130.68C276.555 135.72 277.582 140.153 279.635 143.98C281.782 147.807 284.722 150.793 288.455 152.94C292.282 155.087 296.669 156.16 301.615 156.16C305.629 156.16 309.315 155.46 312.675 154.06C316.035 152.567 318.882 150.373 321.215 147.48L327.515 153.92C324.435 157.56 320.609 160.407 316.035 162.46C311.555 164.42 306.702 165.4 301.475 165.4ZM377.788 165.4C371.534 165.4 365.934 163.907 360.988 160.92C356.041 157.84 352.121 153.733 349.228 148.6C346.428 143.467 345.028 137.68 345.028 131.24C345.028 124.707 346.428 118.873 349.228 113.74C352.121 108.513 356.041 104.407 360.988 101.42C365.934 98.34 371.488 96.8 377.648 96.8C382.688 96.8 387.168 97.8267 391.088 99.88C395.101 101.84 398.321 104.64 400.748 108.28C403.268 111.827 404.808 115.98 405.368 120.74V141.32C404.808 146.08 403.268 150.28 400.748 153.92C398.321 157.56 395.101 160.407 391.088 162.46C387.168 164.42 382.734 165.4 377.788 165.4ZM379.328 156.02C386.141 156.02 391.601 153.733 395.708 149.16C399.908 144.587 402.008 138.567 402.008 131.1C402.008 126.153 401.028 121.813 399.068 118.08C397.201 114.253 394.541 111.313 391.088 109.26C387.728 107.113 383.761 106.04 379.188 106.04C374.521 106.04 370.368 107.113 366.728 109.26C363.181 111.407 360.334 114.393 358.188 118.22C356.134 121.953 355.108 126.247 355.108 131.1C355.108 135.953 356.134 140.247 358.188 143.98C360.334 147.713 363.228 150.653 366.868 152.8C370.508 154.947 374.661 156.02 379.328 156.02ZM401.448 164V146.36L403.408 130.12L401.448 114.3V98.2H411.248V164H401.448ZM463.882 165.4C457.442 165.4 451.609 163.907 446.382 160.92C441.249 157.84 437.142 153.687 434.062 148.46C431.075 143.233 429.582 137.4 429.582 130.96C429.582 124.52 431.075 118.733 434.062 113.6C437.142 108.373 441.249 104.267 446.382 101.28C451.609 98.2933 457.442 96.8 463.882 96.8C468.829 96.8 473.449 97.7333 477.742 99.6C482.035 101.467 485.675 104.08 488.662 107.44L482.222 114.02C479.982 111.5 477.275 109.587 474.102 108.28C470.929 106.88 467.522 106.18 463.882 106.18C459.215 106.18 455.062 107.253 451.422 109.4C447.782 111.547 444.935 114.487 442.882 118.22C440.829 121.86 439.802 126.107 439.802 130.96C439.802 135.72 440.829 140.013 442.882 143.84C444.935 147.573 447.782 150.513 451.422 152.66C455.062 154.807 459.215 155.88 463.882 155.88C467.615 155.88 471.069 155.227 474.242 153.92C477.415 152.52 480.122 150.56 482.362 148.04L488.942 154.62C485.862 158.073 482.129 160.733 477.742 162.6C473.449 164.467 468.829 165.4 463.882 165.4ZM515.165 164V70.48H524.965V164H515.165ZM498.505 107.02V98.2H541.485V107.02H498.505Z" fill="#E72264"/>
    <path d="M192.9 120.88H187.9C187.9 123.641 190.139 125.88 192.9 125.88V120.88ZM192.9 112.2V107.2C190.139 107.2 187.9 109.439 187.9 112.2H192.9ZM235.46 107.44L238.893 111.075C238.911 111.058 238.928 111.042 238.945 111.025L235.46 107.44ZM235.46 81.68L231.924 85.2155C231.941 85.2321 231.958 85.2486 231.975 85.265L235.46 81.68ZM192.9 76.64H187.9C187.9 79.4014 190.139 81.64 192.9 81.64V76.64ZM192.9 67.68V62.68C190.139 62.68 187.9 64.9186 187.9 67.68H192.9ZM237 71.18L234.69 75.6146C234.715 75.6273 234.739 75.6398 234.764 75.6521L237 71.18ZM247.22 80.56L242.897 83.0731C242.912 83.0979 242.927 83.1226 242.941 83.1471L247.22 80.56ZM247.22 108.28L242.941 105.693C242.927 105.717 242.912 105.742 242.897 105.767L247.22 108.28ZM237 117.66L239.161 122.169C239.186 122.157 239.211 122.145 239.236 122.132L237 117.66ZM186.32 164H181.32C181.32 166.761 183.559 169 186.32 169V164ZM186.32 67.68V62.68C183.559 62.68 181.32 64.9186 181.32 67.68H186.32ZM196.54 67.68H201.54C201.54 64.9186 199.301 62.68 196.54 62.68V67.68ZM196.54 164V169C199.301 169 201.54 166.761 201.54 164H196.54ZM244.56 164L240.677 167.15C241.627 168.32 243.053 169 244.56 169V164ZM208.44 119.48L206.899 114.723C205.331 115.231 204.114 116.48 203.646 118.06C203.178 119.641 203.519 121.35 204.557 122.63L208.44 119.48ZM218.38 116.26L222.239 113.08C220.933 111.496 218.792 110.871 216.839 111.503L218.38 116.26ZM257.72 164V169C259.655 169 261.416 167.883 262.242 166.133C263.068 164.383 262.809 162.314 261.579 160.82L257.72 164ZM197.9 120.88V112.2H187.9V120.88H197.9ZM192.9 117.2H220.9V107.2H192.9V117.2ZM220.9 117.2C228.04 117.2 234.305 115.408 238.893 111.075L232.027 103.805C229.895 105.818 226.453 107.2 220.9 107.2V117.2ZM238.945 111.025C243.426 106.669 245.5 100.956 245.5 94.42H235.5C235.5 98.7108 234.214 101.678 231.975 103.855L238.945 111.025ZM245.5 94.42C245.5 88.014 243.39 82.4161 238.945 78.095L231.975 85.265C234.25 87.4772 235.5 90.3726 235.5 94.42H245.5ZM238.996 78.1445C234.416 73.5654 228.113 71.64 220.9 71.64V81.64C226.38 81.64 229.784 83.0746 231.924 85.2155L238.996 78.1445ZM220.9 71.64H192.9V81.64H220.9V71.64ZM197.9 76.64V67.68H187.9V76.64H197.9ZM192.9 72.68H220.9V62.68H192.9V72.68ZM220.9 72.68C226.537 72.68 231.074 73.7308 234.69 75.6146L239.31 66.7454C233.966 63.9625 227.769 62.68 220.9 62.68V72.68ZM234.764 75.6521C238.444 77.4923 241.093 79.969 242.897 83.0731L251.543 78.0469C248.681 73.1243 244.516 69.3477 239.236 66.7079L234.764 75.6521ZM242.941 83.1471C244.852 86.3071 245.86 89.9696 245.86 94.28H255.86C255.86 88.3237 254.441 82.8395 251.499 77.9729L242.941 83.1471ZM245.86 94.28C245.86 98.8132 244.835 102.561 242.941 105.693L251.499 110.867C254.458 105.973 255.86 100.387 255.86 94.28H245.86ZM242.897 105.767C241.093 108.871 238.444 111.348 234.764 113.188L239.236 122.132C244.516 119.492 248.681 115.716 251.543 110.793L242.897 105.767ZM234.839 113.151C231.185 114.902 226.594 115.88 220.9 115.88V125.88C227.713 125.88 233.855 124.711 239.161 122.169L234.839 113.151ZM220.9 115.88H192.9V125.88H220.9V115.88ZM191.32 164V67.68H181.32V164H191.32ZM186.32 72.68H196.54V62.68H186.32V72.68ZM191.54 67.68V164H201.54V67.68H191.54ZM196.54 159H186.32V169H196.54V159ZM248.443 160.85L212.323 116.33L204.557 122.63L240.677 167.15L248.443 160.85ZM209.981 124.237L219.921 121.017L216.839 111.503L206.899 114.723L209.981 124.237ZM214.521 119.44L253.861 167.18L261.579 160.82L222.239 113.08L214.521 119.44ZM257.72 159H244.56V169H257.72V159ZM283.695 160.92L286.176 156.579L286.176 156.579L283.695 160.92ZM271.235 148.6L266.894 151.081C266.905 151.1 266.916 151.119 266.928 151.138L271.235 148.6ZM271.235 113.6L275.557 116.114C275.564 116.103 275.57 116.092 275.577 116.081L271.235 113.6ZM316.455 100.86L313.909 105.163C313.922 105.17 313.934 105.178 313.947 105.185L316.455 100.86ZM327.375 112.2L322.973 114.57C322.991 114.604 323.01 114.638 323.029 114.672L327.375 112.2ZM331.295 131.38L336.271 131.878C336.272 131.863 336.274 131.848 336.275 131.833L331.295 131.38ZM330.735 134.74V139.74C333.093 139.74 335.13 138.093 335.624 135.788L330.735 134.74ZM273.755 134.74H268.755C268.755 137.501 270.994 139.74 273.755 139.74V134.74ZM273.755 126.34V121.34C270.994 121.34 268.755 123.579 268.755 126.34H273.755ZM325.415 126.34L328.719 130.094C330.28 128.719 330.828 126.521 330.093 124.575C329.359 122.628 327.496 121.34 325.415 121.34V126.34ZM321.915 129.42L316.916 129.324C316.878 131.305 318.014 133.122 319.812 133.956C321.61 134.79 323.731 134.483 325.219 133.174L321.915 129.42ZM319.395 116.96L314.877 119.1C314.9 119.149 314.923 119.197 314.948 119.244L319.395 116.96ZM311.975 108.84L309.348 113.094C309.396 113.124 309.445 113.153 309.495 113.181L311.975 108.84ZM287.895 108.98L290.401 113.307L290.401 113.307L287.895 108.98ZM279.495 117.66L275.114 115.25C275.107 115.263 275.1 115.276 275.093 115.289L279.495 117.66ZM279.635 143.98L275.23 146.344C275.244 146.372 275.259 146.399 275.275 146.426L279.635 143.98ZM288.455 152.94L285.963 157.275C285.978 157.283 285.994 157.292 286.009 157.301L288.455 152.94ZM312.675 154.06L314.599 158.675C314.635 158.66 314.67 158.645 314.706 158.629L312.675 154.06ZM321.215 147.48L324.79 143.984C323.791 142.962 322.403 142.417 320.976 142.486C319.549 142.554 318.22 143.229 317.323 144.341L321.215 147.48ZM327.515 153.92L331.332 157.15C332.999 155.181 332.893 152.267 331.09 150.424L327.515 153.92ZM316.035 162.46L318.04 167.041C318.054 167.034 318.069 167.028 318.083 167.021L316.035 162.46ZM301.475 160.4C295.629 160.4 290.573 159.091 286.176 156.579L281.215 165.261C287.271 168.722 294.069 170.4 301.475 170.4V160.4ZM286.176 156.579C281.711 154.027 278.185 150.545 275.543 146.062L266.928 151.138C270.446 157.109 275.226 161.839 281.215 165.261L286.176 156.579ZM275.577 146.119C273.058 141.712 271.755 136.7 271.755 130.96H261.755C261.755 138.287 263.439 145.035 266.894 151.081L275.577 146.119ZM271.755 130.96C271.755 125.326 273.052 120.42 275.557 116.114L266.914 111.086C263.446 117.046 261.755 123.714 261.755 130.96H271.755ZM275.577 116.081C278.133 111.607 281.568 108.14 285.93 105.602L280.901 96.9583C274.997 100.394 270.311 105.14 266.894 111.119L275.577 116.081ZM285.93 105.602C290.247 103.09 295.109 101.8 300.635 101.8V91.8C293.468 91.8 286.85 93.4968 280.901 96.9583L285.93 105.602ZM300.635 101.8C305.826 101.8 310.199 102.967 313.909 105.163L319.002 96.5571C313.565 93.3395 307.391 91.8 300.635 91.8V101.8ZM313.947 105.185C317.796 107.417 320.788 110.513 322.973 114.57L331.778 109.83C328.736 104.181 324.449 99.7159 318.964 96.5348L313.947 105.185ZM323.029 114.672C325.25 118.577 326.435 123.208 326.435 128.72H336.435C336.435 121.725 334.915 115.343 331.722 109.728L323.029 114.672ZM326.435 128.72C326.435 129.271 326.4 129.999 326.316 130.927L336.275 131.833C336.377 130.708 336.435 129.662 336.435 128.72H326.435ZM326.32 130.882C326.251 131.572 326.102 132.498 325.846 133.692L335.624 135.788C335.929 134.369 336.153 133.055 336.271 131.878L326.32 130.882ZM330.735 129.74H273.755V139.74H330.735V129.74ZM278.755 134.74V126.34H268.755V134.74H278.755ZM273.755 131.34H325.415V121.34H273.755V131.34ZM322.112 122.586L318.612 125.666L325.219 133.174L328.719 130.094L322.112 122.586ZM326.915 129.516C327.02 124.039 326.078 119.027 323.843 114.676L314.948 119.244C316.26 121.8 316.998 125.094 316.916 129.324L326.915 129.516ZM323.914 114.82C321.816 110.39 318.651 106.896 314.456 104.499L309.495 113.181C311.833 114.517 313.615 116.436 314.877 119.1L323.914 114.82ZM314.603 104.586C310.479 102.039 305.647 100.9 300.355 100.9V110.9C304.211 110.9 307.126 111.721 309.348 113.094L314.603 104.586ZM300.355 100.9C294.859 100.9 289.814 102.092 285.39 104.653L290.401 113.307C293.071 111.761 296.332 110.9 300.355 110.9V100.9ZM285.39 104.653C281.023 107.181 277.588 110.752 275.114 115.25L283.877 120.07C285.509 117.101 287.674 114.885 290.401 113.307L285.39 104.653ZM275.093 115.289C272.664 119.801 271.555 124.992 271.555 130.68H281.555C281.555 126.288 282.407 122.799 283.898 120.03L275.093 115.289ZM271.555 130.68C271.555 136.412 272.728 141.682 275.23 146.344L284.041 141.616C282.436 138.625 281.555 135.028 281.555 130.68H271.555ZM275.275 146.426C277.854 151.024 281.433 154.67 285.963 157.275L290.948 148.605C288.011 146.917 285.71 144.59 283.996 141.534L275.275 146.426ZM286.009 157.301C290.674 159.918 295.923 161.16 301.615 161.16V151.16C297.414 151.16 293.89 150.256 290.902 148.579L286.009 157.301ZM301.615 161.16C306.221 161.16 310.569 160.354 314.599 158.675L310.752 149.445C308.061 150.566 305.037 151.16 301.615 151.16V161.16ZM314.706 158.629C318.8 156.81 322.282 154.123 325.108 150.619L317.323 144.341C315.483 146.624 313.271 148.324 310.645 149.491L314.706 158.629ZM317.641 150.976L323.941 157.416L331.09 150.424L324.79 143.984L317.641 150.976ZM323.699 150.69C321.126 153.73 317.915 156.135 313.988 157.899L318.083 167.021C323.303 164.678 327.745 161.39 331.332 157.15L323.699 150.69ZM314.031 157.879C310.226 159.544 306.061 160.4 301.475 160.4V170.4C307.344 170.4 312.885 169.296 318.04 167.041L314.031 157.879ZM360.988 160.92L358.345 165.164C358.364 165.177 358.384 165.189 358.403 165.2L360.988 160.92ZM349.228 148.6L344.838 150.994C344.849 151.015 344.86 151.035 344.872 151.055L349.228 148.6ZM349.228 113.74L344.853 111.318C344.848 111.328 344.843 111.337 344.838 111.346L349.228 113.74ZM360.988 101.42L363.572 105.7C363.591 105.689 363.611 105.677 363.63 105.664L360.988 101.42ZM391.088 99.88L388.767 104.309C388.809 104.331 388.851 104.352 388.893 104.373L391.088 99.88ZM400.748 108.28L396.587 111.053C396.615 111.095 396.643 111.136 396.672 111.176L400.748 108.28ZM405.368 120.74H410.368C410.368 120.545 410.356 120.35 410.333 120.156L405.368 120.74ZM405.368 141.32L410.333 141.904C410.356 141.71 410.368 141.515 410.368 141.32H405.368ZM400.748 153.92L396.637 151.074C396.62 151.098 396.603 151.122 396.587 151.146L400.748 153.92ZM391.088 162.46L393.324 166.932C393.337 166.925 393.351 166.918 393.365 166.911L391.088 162.46ZM395.708 149.16L392.025 145.778C392.012 145.792 392 145.806 391.987 145.819L395.708 149.16ZM399.068 118.08L394.574 120.272C394.595 120.316 394.618 120.36 394.641 120.404L399.068 118.08ZM391.088 109.26L388.396 113.473C388.441 113.502 388.486 113.53 388.532 113.558L391.088 109.26ZM366.728 109.26L364.188 104.953C364.171 104.963 364.155 104.973 364.138 104.982L366.728 109.26ZM358.188 118.22L353.827 115.774C353.82 115.786 353.813 115.798 353.806 115.81L358.188 118.22ZM358.188 143.98L353.806 146.39C353.822 146.417 353.837 146.445 353.853 146.472L358.188 143.98ZM401.448 164H396.448C396.448 166.761 398.686 169 401.448 169V164ZM401.448 146.36L396.484 145.761C396.46 145.96 396.448 146.16 396.448 146.36H401.448ZM403.408 130.12L408.371 130.719C408.42 130.316 408.42 129.908 408.37 129.505L403.408 130.12ZM401.448 114.3H396.448C396.448 114.506 396.46 114.711 396.485 114.915L401.448 114.3ZM401.448 98.2V93.2C398.686 93.2 396.448 95.4386 396.448 98.2H401.448ZM411.248 98.2H416.248C416.248 95.4386 414.009 93.2 411.248 93.2V98.2ZM411.248 164V169C414.009 169 416.248 166.761 416.248 164H411.248ZM377.788 160.4C372.368 160.4 367.675 159.117 363.572 156.64L358.403 165.2C364.193 168.696 370.701 170.4 377.788 170.4V160.4ZM363.63 156.676C359.404 154.044 356.07 150.556 353.583 146.145L344.872 151.055C348.172 156.911 352.678 161.636 358.345 165.164L363.63 156.676ZM353.617 146.206C351.257 141.879 350.028 136.93 350.028 131.24H340.028C340.028 138.43 341.598 145.054 344.838 150.994L353.617 146.206ZM350.028 131.24C350.028 125.443 351.263 120.45 353.617 116.134L344.838 111.346C341.592 117.296 340.028 123.97 340.028 131.24H350.028ZM353.602 116.162C356.087 111.673 359.4 108.219 363.572 105.7L358.403 97.1397C352.681 100.594 348.155 105.353 344.853 111.318L353.602 116.162ZM363.63 105.664C367.738 103.107 372.366 101.8 377.648 101.8V91.8C370.609 91.8 364.131 93.573 358.345 97.1755L363.63 105.664ZM377.648 101.8C381.993 101.8 385.657 102.68 388.767 104.309L393.408 95.4508C388.678 92.9733 383.382 91.8 377.648 91.8V101.8ZM388.893 104.373C392.128 105.953 394.663 108.167 396.587 111.053L404.908 105.506C401.979 101.113 398.074 97.7274 393.282 95.3872L388.893 104.373ZM396.672 111.176C398.658 113.971 399.93 117.311 400.402 121.324L410.333 120.156C409.685 114.649 407.877 109.682 404.823 105.384L396.672 111.176ZM400.368 120.74V141.32H410.368V120.74H400.368ZM400.402 140.736C399.929 144.752 398.653 148.161 396.637 151.074L404.858 156.766C407.882 152.399 409.686 147.408 410.333 141.904L400.402 140.736ZM396.587 151.146C394.649 154.053 392.087 156.332 388.81 158.009L393.365 166.911C398.115 164.481 401.992 161.067 404.908 156.693L396.587 151.146ZM388.851 157.988C385.71 159.558 382.059 160.4 377.788 160.4V170.4C383.41 170.4 388.625 169.282 393.324 166.932L388.851 157.988ZM379.328 161.02C387.388 161.02 394.264 158.251 399.428 152.501L391.987 145.819C388.938 149.215 384.893 151.02 379.328 151.02V161.02ZM399.39 152.542C404.603 146.866 407.008 139.551 407.008 131.1H397.008C397.008 137.582 395.212 142.307 392.025 145.778L399.39 152.542ZM407.008 131.1C407.008 125.484 405.891 120.321 403.494 115.756L394.641 120.404C396.164 123.306 397.008 126.823 397.008 131.1H407.008ZM403.561 115.888C401.294 111.24 397.985 107.544 393.643 104.962L388.532 113.558C391.097 115.083 393.107 117.266 394.574 120.272L403.561 115.888ZM393.779 105.047C389.502 102.314 384.571 101.04 379.188 101.04V111.04C382.951 111.04 385.953 111.913 388.396 113.473L393.779 105.047ZM379.188 101.04C373.723 101.04 368.676 102.306 364.188 104.953L369.267 113.567C372.059 111.92 375.318 111.04 379.188 111.04V101.04ZM364.138 104.982C359.81 107.603 356.37 111.239 353.827 115.774L362.548 120.666C364.298 117.547 366.552 115.211 369.317 113.537L364.138 104.982ZM353.806 115.81C351.293 120.379 350.108 125.523 350.108 131.1H360.108C360.108 126.971 360.975 123.527 362.569 120.63L353.806 115.81ZM350.108 131.1C350.108 136.677 351.293 141.821 353.806 146.39L362.569 141.57C360.975 138.673 360.108 135.229 360.108 131.1H350.108ZM353.853 146.472C356.422 150.941 359.928 154.512 364.328 157.107L369.407 148.493C366.527 146.795 364.246 144.486 362.522 141.488L353.853 146.472ZM364.328 157.107C368.816 159.754 373.863 161.02 379.328 161.02V151.02C375.458 151.02 372.199 150.14 369.407 148.493L364.328 157.107ZM406.448 164V146.36H396.448V164H406.448ZM406.411 146.959L408.371 130.719L398.444 129.521L396.484 145.761L406.411 146.959ZM408.37 129.505L406.41 113.685L396.485 114.915L398.445 130.735L408.37 129.505ZM406.448 114.3V98.2H396.448V114.3H406.448ZM401.448 103.2H411.248V93.2H401.448V103.2ZM406.248 98.2V164H416.248V98.2H406.248ZM411.248 159H401.448V169H411.248V159ZM446.382 160.92L443.81 165.207C443.84 165.226 443.871 165.244 443.901 165.261L446.382 160.92ZM434.062 148.46L429.721 150.941C429.732 150.96 429.743 150.979 429.754 150.998L434.062 148.46ZM434.062 113.6L429.754 111.062C429.75 111.07 429.745 111.078 429.74 111.086L434.062 113.6ZM446.382 101.28L443.901 96.9388C443.89 96.9452 443.879 96.9517 443.868 96.9583L446.382 101.28ZM477.742 99.6L475.748 104.185L475.748 104.185L477.742 99.6ZM488.662 107.44L492.235 110.937C494.073 109.06 494.144 106.081 492.399 104.118L488.662 107.44ZM482.222 114.02L478.485 117.342C479.406 118.378 480.716 118.985 482.102 119.019C483.488 119.052 484.826 118.508 485.795 117.517L482.222 114.02ZM474.102 108.28L472.084 112.855C472.122 112.871 472.16 112.888 472.198 112.903L474.102 108.28ZM442.882 118.22L447.237 120.677C447.246 120.661 447.254 120.645 447.263 120.63L442.882 118.22ZM442.882 143.84L438.476 146.204C438.484 146.219 438.493 146.234 438.501 146.25L442.882 143.84ZM451.422 152.66L448.882 156.967L448.882 156.967L451.422 152.66ZM474.242 153.92L476.146 158.543C476.184 158.528 476.222 158.511 476.26 158.495L474.242 153.92ZM482.362 148.04L485.898 144.504C484.924 143.531 483.592 143.002 482.215 143.042C480.839 143.083 479.54 143.689 478.625 144.718L482.362 148.04ZM488.942 154.62L492.674 157.948C494.438 155.97 494.352 152.959 492.478 151.084L488.942 154.62ZM477.742 162.6L475.784 157.999C475.772 158.004 475.76 158.009 475.748 158.015L477.742 162.6ZM463.882 160.4C458.249 160.4 453.281 159.104 448.863 156.579L443.901 165.261C449.936 168.71 456.635 170.4 463.882 170.4V160.4ZM448.955 156.633C444.546 153.988 441.032 150.44 438.37 145.922L429.754 150.998C433.252 156.934 437.951 161.692 443.81 165.207L448.955 156.633ZM438.403 145.979C435.878 141.561 434.582 136.593 434.582 130.96H424.582C424.582 138.207 426.272 144.906 429.721 150.941L438.403 145.979ZM434.582 130.96C434.582 125.326 435.878 120.42 438.384 116.114L429.74 111.086C426.272 117.046 424.582 123.714 424.582 130.96H434.582ZM438.37 116.138C441.024 111.633 444.52 108.148 448.896 105.602L443.868 96.9583C437.977 100.385 433.26 105.113 429.754 111.062L438.37 116.138ZM448.863 105.621C453.281 103.096 458.249 101.8 463.882 101.8V91.8C456.635 91.8 449.936 93.4903 443.901 96.9388L448.863 105.621ZM463.882 101.8C468.182 101.8 472.119 102.608 475.748 104.185L479.736 95.0146C474.778 92.8591 469.475 91.8 463.882 91.8V101.8ZM475.748 104.185C479.404 105.775 482.441 107.967 484.925 110.762L492.399 104.118C488.91 100.193 484.667 97.1586 479.736 95.0146L475.748 104.185ZM485.089 103.943L478.649 110.523L485.795 117.517L492.235 110.937L485.089 103.943ZM485.959 110.698C483.205 107.6 479.868 105.247 476.006 103.657L472.198 112.903C474.683 113.926 476.759 115.4 478.485 117.342L485.959 110.698ZM476.12 103.705C472.28 102.011 468.182 101.18 463.882 101.18V111.18C466.862 111.18 469.578 111.749 472.084 112.855L476.12 103.705ZM463.882 101.18C458.418 101.18 453.37 102.446 448.882 105.093L453.962 113.707C456.754 112.06 460.013 111.18 463.882 111.18V101.18ZM448.882 105.093C444.463 107.7 440.983 111.298 438.501 115.81L447.263 120.63C448.888 117.676 451.101 115.394 453.962 113.707L448.882 105.093ZM438.527 115.763C435.987 120.266 434.802 125.386 434.802 130.96H444.802C444.802 126.827 445.67 123.454 447.237 120.677L438.527 115.763ZM434.802 130.96C434.802 136.464 435.996 141.582 438.476 146.204L447.288 141.476C445.661 138.444 444.802 134.976 444.802 130.96H434.802ZM438.501 146.25C440.983 150.762 444.463 154.36 448.882 156.967L453.962 148.353C451.101 146.666 448.888 144.384 447.263 141.43L438.501 146.25ZM448.882 156.967C453.37 159.614 458.418 160.88 463.882 160.88V150.88C460.013 150.88 456.754 150 453.962 148.353L448.882 156.967ZM463.882 160.88C468.211 160.88 472.317 160.12 476.146 158.543L472.338 149.297C469.82 150.334 467.02 150.88 463.882 150.88V160.88ZM476.26 158.495C480.07 156.814 483.369 154.433 486.099 151.362L478.625 144.718C476.875 146.687 474.76 148.226 472.224 149.345L476.26 158.495ZM478.826 151.576L485.406 158.156L492.478 151.084L485.898 144.504L478.826 151.576ZM485.211 151.292C482.636 154.179 479.514 156.412 475.784 157.999L479.7 167.201C484.743 165.055 489.088 161.968 492.674 157.948L485.211 151.292ZM475.748 158.015C472.119 159.592 468.182 160.4 463.882 160.4V170.4C469.475 170.4 474.778 169.341 479.736 167.185L475.748 158.015ZM515.165 164H510.165C510.165 166.761 512.403 169 515.165 169V164ZM515.165 70.48V65.48C512.403 65.48 510.165 67.7186 510.165 70.48H515.165ZM524.965 70.48H529.965C529.965 67.7186 527.726 65.48 524.965 65.48V70.48ZM524.965 164V169C527.726 169 529.965 166.761 529.965 164H524.965ZM498.505 107.02H493.505C493.505 109.781 495.743 112.02 498.505 112.02V107.02ZM498.505 98.2V93.2C495.743 93.2 493.505 95.4386 493.505 98.2H498.505ZM541.485 98.2H546.485C546.485 95.4386 544.246 93.2 541.485 93.2V98.2ZM541.485 107.02V112.02C544.246 112.02 546.485 109.781 546.485 107.02H541.485ZM520.165 164V70.48H510.165V164H520.165ZM515.165 75.48H524.965V65.48H515.165V75.48ZM519.965 70.48V164H529.965V70.48H519.965ZM524.965 159H515.165V169H524.965V159ZM503.505 107.02V98.2H493.505V107.02H503.505ZM498.505 103.2H541.485V93.2H498.505V103.2ZM536.485 98.2V107.02H546.485V98.2H536.485ZM541.485 102.02H498.505V112.02H541.485V102.02Z" fill="#E72264" mask="url(#path-23-outside-1_164_3)"/>
    </svg>
