<svg width="379" height="379" viewBox="0 0 379 379" fill="none" xmlns="http://www.w3.org/2000/svg">
<mask id="mask0_629_1246" style="mask-type:alpha" maskUnits="userSpaceOnUse" x="0" y="0" width="379" height="379">
<rect width="379" height="379" rx="44" fill="#D9D9D9"/>
</mask>
<g mask="url(#mask0_629_1246)">
<path d="M379.1 0H0V379.1H379.1V0Z" fill="#E72264"/>
<path d="M189.505 57C135.1 57 91 101.057 91 155.407C91 156.472 91.0184 157.528 91.0551 158.584V253.152C91.0551 253.152 91.0551 253.161 91.0551 253.17V262.784C91.0551 262.784 91.0551 262.784 91.0643 262.775V286.548C91.0643 286.732 91.0551 286.906 91.0551 287.09C91.0551 287.273 91.0643 287.457 91.0735 287.641V288.081H91.0827C91.6066 306.345 106.579 320.991 124.99 320.991C143.4 320.991 158.529 306.345 159.053 288.081V253.17H187.198C187.96 253.189 188.733 253.198 189.495 253.198C243.9 253.198 288 209.756 288 155.407C288 101.057 243.909 57 189.505 57ZM189.505 185.249C183.484 185.249 168.226 185.249 161.894 185.249H159.081V155.416C159.081 138.695 172.767 125.133 189.505 125.133C206.242 125.133 219.818 138.695 219.818 155.416C219.818 172.137 206.242 185.258 189.505 185.258V185.249Z" fill="white"/>
<path opacity="0.15" d="M124.135 253.189H159.007V288.091H158.851C158.327 306.354 143.354 321 124.944 321C106.534 321 91.5515 306.354 91.0276 288.091H91.0184V287.65C91.0184 287.466 91 287.283 91 287.099C91 286.915 91.0092 286.741 91.0092 286.557V284.097C92.057 267.761 107.489 253.189 124.126 253.189H124.135Z" fill="#1D1D1B" fill-opacity="0.5"/>
<g opacity="0.05">
<path opacity="0.5" d="M91.0552 211.208V253.171C91.0552 216.203 122.15 185.773 159.063 185.268V171.88C131.626 174.763 107.333 189.519 91.0552 211.208Z" fill="black" fill-opacity="0.5"/>
<path d="M91.1104 284.748C99.1253 278.872 108.85 275.41 119.346 275.41H159.072V253.17H125.036C107.057 253.17 92.3604 267.1 91.1104 284.748Z" fill="black" fill-opacity="0.5"/>
</g>
<g opacity="0.05">
<path opacity="0.5" d="M159.063 185.268V173.11C131.396 175.819 106.984 190.896 91.0552 213.035V253.171C91.0552 216.203 122.15 185.773 159.063 185.268Z" fill="black" fill-opacity="0.5"/>
<path d="M125.036 253.17C107.545 253.17 93.1508 266.365 91.239 283.334C99.2448 277.09 109.135 273.399 119.861 273.399H159.063V253.18H125.027L125.036 253.17Z" fill="black" fill-opacity="0.5"/>
</g>
<g opacity="0.05">
<path opacity="0.5" d="M159.063 185.268V174.332C131.148 176.857 106.58 192.301 91.0552 214.936V253.161C91.0552 216.194 122.15 185.763 159.063 185.258V185.268Z" fill="black" fill-opacity="0.5"/>
<path d="M125.036 253.17C108.032 253.17 93.9597 265.631 91.4229 281.911C99.3826 275.309 109.438 271.37 120.376 271.37H159.063V253.17H125.027H125.036Z" fill="black" fill-opacity="0.5"/>
</g>
<g opacity="0.05">
<path opacity="0.5" d="M159.063 185.268V175.562C130.863 177.894 106.129 193.761 91.0552 216.947V253.171C91.0552 216.203 122.15 185.773 159.063 185.268Z" fill="black" fill-opacity="0.5"/>
<path d="M125.036 253.171C108.519 253.171 94.7595 264.933 91.6711 280.525C99.5666 273.556 109.76 269.35 120.9 269.35H159.072V253.171H125.036Z" fill="black" fill-opacity="0.5"/>
</g>
<g opacity="0.05">
<path opacity="0.5" d="M159.063 185.267V176.801C130.532 178.913 105.605 195.276 91.0552 219.067V253.17C91.0552 216.202 122.15 185.772 159.063 185.267Z" fill="black" fill-opacity="0.5"/>
<path d="M125.036 253.171C109.015 253.171 95.5956 264.235 91.9834 279.12C99.7685 271.792 110.091 267.321 121.414 267.321H159.062V253.162H125.027L125.036 253.171Z" fill="black" fill-opacity="0.5"/>
</g>
<g opacity="0.05">
<path opacity="0.5" d="M159.063 185.267V178.041C130.156 179.933 104.989 196.856 91.0552 221.345V253.17C91.0552 216.203 122.15 185.772 159.063 185.267Z" fill="black" fill-opacity="0.5"/>
<path d="M125.036 253.17C109.521 253.17 96.4508 263.546 92.3606 277.715C100.008 270.029 110.431 265.3 121.939 265.3H159.072V253.17H125.036Z" fill="black" fill-opacity="0.5"/>
</g>
<g opacity="0.05">
<path opacity="0.5" d="M159.063 185.268V179.29C129.714 180.934 104.263 198.536 91.0552 223.815V253.171C91.0552 216.203 122.15 185.773 159.063 185.268Z" fill="black" fill-opacity="0.5"/>
<path d="M125.036 253.17C110.045 253.17 97.3239 262.867 92.7925 276.319C100.265 268.284 110.789 263.28 122.444 263.28H159.063V253.17H125.027H125.036Z" fill="black" fill-opacity="0.5"/>
</g>
<g opacity="0.05">
<path opacity="0.5" d="M159.063 185.268V180.548C129.172 181.925 103.381 200.354 91.0552 226.56V253.171C91.0552 216.203 122.15 185.773 159.063 185.268Z" fill="black" fill-opacity="0.5"/>
<path d="M125.036 253.17C110.56 253.17 98.2062 262.215 93.2888 274.951C100.559 266.558 111.148 261.26 122.968 261.26H159.072V253.17H125.036Z" fill="black" fill-opacity="0.5"/>
</g>
<g opacity="0.05">
<path opacity="0.5" d="M159.063 185.267V181.833C128.483 182.926 102.25 202.392 91.0552 229.746V253.17C91.0552 216.202 122.15 185.772 159.063 185.267Z" fill="black" fill-opacity="0.5"/>
<path d="M125.036 253.17C111.083 253.17 99.0978 261.572 93.8586 273.583C100.872 264.832 111.534 259.24 123.492 259.24H159.072V253.17H125.036Z" fill="black" fill-opacity="0.5"/>
</g>
</g>
</svg>
