<?xml version="1.0" encoding="utf-8"?>
<!-- Generator: Adobe Illustrator 19.1.0, SVG Export Plug-In . SVG Version: 6.00 Build 0)  -->
<svg version="1.1" id="Layer_1" xmlns="http://www.w3.org/2000/svg" xmlns:xlink="http://www.w3.org/1999/xlink" x="0px" y="0px"
	 viewBox="0 0 49.1 48.7" style="enable-background:new 0 0 49.1 48.7;" xml:space="preserve">
<style type="text/css">
	.st0{fill:#393C42;}
</style>
<g>
	<path class="st0" d="M40.3,24.4c0,2.5-0.6,4.9-1.7,7c-0.4,0.8-0.2,1.7,0.4,2.4l3.4,3.4c0.9,0.9,2.5,0.7,3.2-0.4
		c2.2-3.6,3.4-7.9,3.4-12.4c0-4.5-1.2-8.8-3.4-12.4c-0.7-1.2-2.3-1.4-3.2-0.4L39,15c-0.6,0.6-0.8,1.6-0.4,2.4
		C39.7,19.5,40.3,21.9,40.3,24.4z"/>
</g>
<g>
	<defs>
		<path id="SVGID_1_" d="M24.4,40c-8.8,0-16-7.4-15.6-16.3C9.1,15.5,16,8.9,24.1,8.8c2.7,0,5.3,0.6,7.6,1.8c0.6,0.3,1.3,0.2,1.8-0.3
			l4.1-4.1c0.7-0.7,0.6-1.9-0.3-2.4c-4.2-2.6-9.2-4-14.6-3.7C10.7,0.8,0.8,10.7,0,22.8C-0.8,37,10.4,48.7,24.4,48.7
			c4.8,0,9.2-1.4,13-3.8c0.8-0.5,1-1.7,0.3-2.4l-4.1-4.1c-0.5-0.5-1.2-0.6-1.8-0.3C29.5,39.3,27,40,24.4,40z"/>
	</defs>
	<use xlink:href="#SVGID_1_"  style="overflow:visible;fill:#393C42;"/>
	<clipPath id="SVGID_2_">
		<use xlink:href="#SVGID_1_"  style="overflow:visible;"/>
	</clipPath>
</g>
</svg>
